<?xml version="1.0" encoding="utf-8"?>
<!-- Generator: Adobe Illustrator 23.0.6, SVG Export Plug-In . SVG Version: 6.00 Build 0)  -->
<svg version="1.1" id="Layer_1" xmlns="http://www.w3.org/2000/svg" xmlns:xlink="http://www.w3.org/1999/xlink" x="0px" y="0px"
	 viewBox="0 0 600 600" style="enable-background:new 0 0 600 600;" xml:space="preserve">
<style type="text/css">
	.st0{fill-rule:evenodd;clip-rule:evenodd;fill:#FFFFFF;stroke:#FF871D;stroke-width:7;stroke-miterlimit:10;}
	.st1{fill:#FF871D;}
</style>
<circle class="st0" cx="299.5" cy="299.5" r="280.5"/>
<g>
	<g>
		<path class="st1" d="M300,203L162.4,316.5c0,0.2,0,0.4-0.1,0.7c-0.1,0.3-0.1,0.6-0.1,0.7v114.9c0,4.1,1.5,7.7,4.5,10.8
			c3,3,6.6,4.6,10.8,4.6h91.9v-91.9h61.3v91.9h91.9c4.1,0,7.7-1.5,10.8-4.6c3-3,4.6-6.6,4.6-10.8V317.9c0-0.6-0.1-1.1-0.2-1.4
			L300,203z"/>
		<path class="st1" d="M490.3,290.6L437.9,247v-97.7c0-2.2-0.7-4.1-2.2-5.5c-1.4-1.4-3.3-2.2-5.5-2.2h-46c-2.2,0-4.1,0.7-5.5,2.2
			c-1.4,1.4-2.2,3.3-2.2,5.5V196l-58.4-48.8c-5.1-4.1-11.2-6.2-18.2-6.2s-13.1,2.1-18.2,6.2l-172,143.4c-1.6,1.3-2.5,3-2.6,5.1
			c-0.2,2.2,0.4,4,1.7,5.6l14.8,17.7c1.3,1.4,3,2.3,5,2.6c1.9,0.2,3.8-0.4,5.7-1.7l165.7-138L465.7,320c1.3,1.1,3,1.7,5,1.7h0.7
			c2.1-0.3,3.7-1.2,5-2.6l14.8-17.7c1.3-1.6,1.8-3.5,1.7-5.6C492.8,293.6,491.9,291.9,490.3,290.6z"/>
	</g>
</g>
</svg>
