<?xml version="1.0" encoding="utf-8"?>
<!-- Generator: Adobe Illustrator 23.0.6, SVG Export Plug-In . SVG Version: 6.00 Build 0)  -->
<svg version="1.1" id="Layer_1" xmlns="http://www.w3.org/2000/svg" xmlns:xlink="http://www.w3.org/1999/xlink" x="0px" y="0px"
	 viewBox="0 0 600 600" style="enable-background:new 0 0 600 600;" xml:space="preserve">
<style type="text/css">
	.st0{fill-rule:evenodd;clip-rule:evenodd;fill:#FFFFFF;stroke:#FF871D;stroke-width:7;stroke-miterlimit:10;}
	.st1{fill:#FF871D;}
</style>
<circle class="st0" cx="299" cy="301" r="280.5"/>
<path class="st1" d="M201.8,295.2c34,45.3,81.8,78.8,135.9,95.6l31.9-45.3c3.9-5.6,10.6-8.3,17.2-7.4c20.8,3.1,42.7,2.9,64.5-0.9
	c9.7-1.7,18.9,4.8,20.6,14.5l10.7,61.3c1.7,9.7-4.8,18.9-14.5,20.6c-165,28.8-322-81.6-350.8-246.6c-1.7-9.7,4.8-18.9,14.5-20.6
	l61.5-10.7c9.7-1.7,18.9,4.8,20.6,14.5c3.8,22,11,42.4,21,61c3,5.8,2.8,12.9-1.3,18.7L201.8,295.2z"/>
</svg>
