<?xml version="1.0" encoding="utf-8"?>
<!-- Generator: Adobe Illustrator 23.0.6, SVG Export Plug-In . SVG Version: 6.00 Build 0)  -->
<svg version="1.1" id="Layer_1" xmlns="http://www.w3.org/2000/svg" xmlns:xlink="http://www.w3.org/1999/xlink" x="0px" y="0px"
	 viewBox="0 0 600 600" style="enable-background:new 0 0 600 600;" xml:space="preserve">
<style type="text/css">
	.st0{fill-rule:evenodd;clip-rule:evenodd;fill:#FFFFFF;stroke:#FF871D;stroke-width:7;stroke-miterlimit:10;}
	.st1{display:none;fill-rule:evenodd;clip-rule:evenodd;fill:#FFFFFF;}
	.st2{display:none;fill-rule:evenodd;clip-rule:evenodd;fill:#F47A18;}
	.st3{display:none;fill:#349AD6;}
	.st4{display:none;fill:#206496;}
	.st5{fill:#FF871D;}
	.st6{fill:#757575;}
</style>
<circle class="st0" cx="299.5" cy="299.5" r="280.5"/>
<path class="st1" d="M169.6,220.5h9.4v102c0,16.3,8.9,30.1,27.6,30.1h181.8v4.9c0,14.3-16.3,28.1-32.5,28.1H217.4l-53.2,31.5
	l7.4-31.5h-2c-16.3,0-23.6-13.8-23.6-28.1V244.7C146,230.9,153.4,220.5,169.6,220.5L169.6,220.5z"/>
<path class="st2" d="M386.4,334.8H232.2c-18.7,0-36-11.3-36-27.1V204.3v-24.6c0-15.8,17.2-32,36-32H443c18.2,0,39.9,16.3,39.9,32
	v128.1c0,14.3-18.2,25.1-36,26.6l11.3,42.9L386.4,334.8z"/>
<path class="st1" d="M394.3,217.6L394.3,217.6c-11.3,0-20.7,9.4-20.7,20.7s9.3,20.2,20.7,20.2c11.3,0,20.7-8.9,20.7-20.2
	S405.6,217.6,394.3,217.6L394.3,217.6z"/>
<path class="st1" d="M333.7,217.6L333.7,217.6c-11.3,0-20.7,9.4-20.7,20.7s9.4,20.2,20.7,20.2c11.3,0,20.7-8.9,20.7-20.2
	C354.4,227,345,217.6,333.7,217.6L333.7,217.6z"/>
<path class="st1" d="M276.6,217.6L276.6,217.6c-10.8,0-20.7,9.4-20.7,20.7s9.9,20.2,20.7,20.2c11.3,0,21.2-8.9,21.2-20.2
	C297.8,227,287.9,217.6,276.6,217.6L276.6,217.6z"/>
<path class="st3" d="M204.4,282c26.3,51.7,68.8,94,120.4,120.4l40.1-40.1c4.9-4.9,12.2-6.5,18.7-4.4c20.5,6.7,42.6,10.5,65.3,10.5
	c10,0,18.2,8.2,18.2,18.2v63.7c0,10-8.2,18.2-18.2,18.2c-171.6,0-310.6-139-310.6-310.6c0-10,8.2-18.2,18.2-18.2h63.9
	c10,0,18.2,8.2,18.2,18.2c0,22.8,3.7,44.7,10.5,65.3c2,6.4,0.6,13.5-4.6,18.7L204.4,282z"/>
<path class="st4" d="M198.9,273.8c26.3,51.7,68.8,94,120.4,120.4l40.1-40.1c4.9-4.9,12.2-6.5,18.7-4.4c20.5,6.7,42.6,10.5,65.3,10.5
	c10,0,18.2,8.2,18.2,18.2V442c0,10-8.2,18.2-18.2,18.2c-171.6,0-310.6-139-310.6-310.6c0-10,8.2-18.2,18.2-18.2h63.9
	c10,0,18.2,8.2,18.2,18.2c0,22.8,3.7,44.7,10.5,65.3c2,6.4,0.6,13.5-4.6,18.7L198.9,273.8z"/>
<g>
	<g>
		<g>
			<path class="st5" d="M420.6,265.8c0-68.6-74.3-124.4-165.7-124.4S89.2,197.2,89.2,265.8c0,29.7,13.7,57.8,38.9,80.2l-35.6,28.3
				c-2.9,2.3-4.1,6.3-2.9,9.9s4.5,6,8.2,6h157C346.3,390.2,420.6,334.4,420.6,265.8z"/>
			<path class="st6" d="M504.4,427.7l-35.6-28.3c25.2-22.4,38.9-50.5,38.9-80.2c0-38-22.6-73.3-62.1-97c-3.1-1.8-7-1.6-9.8,0.7
				s-4,6.1-2.9,9.6c3.4,11.3,5.1,22.5,5.1,33.4c0,78.1-78.8,140.5-179.4,142c-4.1,0.1-7.6,3-8.4,7.1c-0.8,4.1,1.2,8.2,4.9,9.9
				c26.3,12.2,56.4,18.7,86.9,18.7h157c3.7,0,7-2.4,8.2-6C508.5,434,507.4,430,504.4,427.7z"/>
		</g>
	</g>
</g>
</svg>
